<svg xmlns="http://www.w3.org/2000/svg" xmlns:xlink="http://www.w3.org/1999/xlink" viewBox="0 0 1600 1200" width="1600" height="1200" preserveAspectRatio="xMidYMid meet" style="width: 100%; height: 100%; transform: translate3d(0px, 0px, 0px); content-visibility: visible;"><defs><clipPath id="__lottie_element_1356"><rect width="1600" height="1200" x="0" y="0"/></clipPath></defs><g clip-path="url(#__lottie_element_1356)"><g transform="matrix(0.9800000190734863,0,0,0.9800000190734863,790,538)" opacity="1" style="display: block;"><g opacity="1" transform="matrix(1.0642399787902832,0,0,1.0642399787902832,13,105)"><path fill="rgb(249,178,52)" fill-opacity="1" d=" M0,-357 C197.02830505371094,-357 357,-197.02830505371094 357,0 C357,197.02830505371094 197.02830505371094,357 0,357 C-197.02830505371094,357 -357,197.02830505371094 -357,0 C-357,-197.02830505371094 -197.02830505371094,-357 0,-357z"/><path stroke-linecap="butt" stroke-linejoin="miter" fill-opacity="0" stroke-miterlimit="4" stroke="rgb(0,0,0)" stroke-opacity="1" stroke-width="0" d=" M0,-357 C197.02830505371094,-357 357,-197.02830505371094 357,0 C357,197.02830505371094 197.02830505371094,357 0,357 C-197.02830505371094,357 -357,197.02830505371094 -357,0 C-357,-197.02830505371094 -197.02830505371094,-357 0,-357z"/></g></g><g transform="matrix(1,0,0,1,803,666)" opacity="1" style="display: block;"><g opacity="1" transform="matrix(1,0,0,1,0,0)"><path fill="rgb(244,140,51)" fill-opacity="1" d=" M-115,-124 C-115,-124 -196,65 -216,136 C-216.6060028076172,138.15199279785156 -237,-36.5 -289,-89.25 C-296.0199890136719,-96.37200164794922 -301.25,-85.5 -301.25,-85.5 C-301.25,-85.5 -222,103.5 -253,189 C-253.53900146484375,190.48599243164062 -275,202.5 -286.0610046386719,211.8470001220703 C-303.3940124511719,226.4949951171875 -302,240 -302,240 C-302,240 -145,226 -145,226 C-145,226 -178.26499938964844,186.5290069580078 -172.38400268554688,133.9010009765625 C-164.26600646972656,61.249000549316406 -131,-31 -97,-113 C-96.23400115966797,-114.84700012207031 -115,-124 -115,-124z"/><path stroke-linecap="butt" stroke-linejoin="miter" fill-opacity="0" stroke-miterlimit="4" stroke="rgb(0,0,0)" stroke-opacity="1" stroke-width="0" d=" M-115,-124 C-115,-124 -196,65 -216,136 C-216.6060028076172,138.15199279785156 -237,-36.5 -289,-89.25 C-296.0199890136719,-96.37200164794922 -301.25,-85.5 -301.25,-85.5 C-301.25,-85.5 -222,103.5 -253,189 C-253.53900146484375,190.48599243164062 -275,202.5 -286.0610046386719,211.8470001220703 C-303.3940124511719,226.4949951171875 -302,240 -302,240 C-302,240 -145,226 -145,226 C-145,226 -178.26499938964844,186.5290069580078 -172.38400268554688,133.9010009765625 C-164.26600646972656,61.249000549316406 -131,-31 -97,-113 C-96.23400115966797,-114.84700012207031 -115,-124 -115,-124z"/></g><g opacity="1" transform="matrix(1,0,0,1,0,0)"><path fill="rgb(244,140,51)" fill-opacity="1" d=" M-235.5,-145 C-289,-161 -303.5,-110 -305,-119 C-306.5,-128 -321.5,-139.5 -321.5,-139.5 C-321.5,-139.5 -312.5,-118 -316,-120.5 C-351.32501220703125,-145.73199462890625 -388.5,-124.5 -388.5,-124.5 C-388.5,-124.5 -345,-117 -356,-117 C-392.5140075683594,-117 -418,-90.5 -416.5,-92.5 C-415,-94.5 -338.93499755859375,-93.0770034790039 -345,-90 C-378.5,-73 -389.5,-19 -389.5,-19 C-389.5,-19 -331.5,-76 -344.5,-55.5 C-357.5,-35 -345,7 -345,7 C-345,7 -300,-85.5 -300,-85.5 C-300,-85.5 -260.8389892578125,-85.00299835205078 -229.51400756835938,-84.03800201416016 C-209.66900634765625,-83.427001953125 -195.17300415039062,-75.23400115966797 -197.5,-79.5 C-203.5,-90.5 -244.5,-108 -244,-108.5 C-237.39300537109375,-121.71299743652344 -158.5919952392578,-121.11799621582031 -159.5,-123.5 C-163.5,-134 -248,-136 -248,-136 C-248,-136 -234.4290008544922,-144.67999267578125 -235.5,-145z"/><path stroke-linecap="butt" stroke-linejoin="miter" fill-opacity="0" stroke-miterlimit="4" stroke="rgb(0,0,0)" stroke-opacity="1" stroke-width="0" d=" M-235.5,-145 C-289,-161 -303.5,-110 -305,-119 C-306.5,-128 -321.5,-139.5 -321.5,-139.5 C-321.5,-139.5 -312.5,-118 -316,-120.5 C-351.32501220703125,-145.73199462890625 -388.5,-124.5 -388.5,-124.5 C-388.5,-124.5 -345,-117 -356,-117 C-392.5140075683594,-117 -418,-90.5 -416.5,-92.5 C-415,-94.5 -338.93499755859375,-93.0770034790039 -345,-90 C-378.5,-73 -389.5,-19 -389.5,-19 C-389.5,-19 -331.5,-76 -344.5,-55.5 C-357.5,-35 -345,7 -345,7 C-345,7 -300,-85.5 -300,-85.5 C-300,-85.5 -260.8389892578125,-85.00299835205078 -229.51400756835938,-84.03800201416016 C-209.66900634765625,-83.427001953125 -195.17300415039062,-75.23400115966797 -197.5,-79.5 C-203.5,-90.5 -244.5,-108 -244,-108.5 C-237.39300537109375,-121.71299743652344 -158.5919952392578,-121.11799621582031 -159.5,-123.5 C-163.5,-134 -248,-136 -248,-136 C-248,-136 -234.4290008544922,-144.67999267578125 -235.5,-145z"/></g><g opacity="1" transform="matrix(0.8480480909347534,0.5299192667007446,-0.5299192667007446,0.8480480909347534,148.5,125)"><path fill="rgb(244,140,51)" fill-opacity="1" d=" M-287.3580017089844,-131.85000610351562 C-340.8580017089844,-147.85000610351562 -355.3580017089844,-96.8499984741211 -356.8580017089844,-105.8499984741211 C-358.3580017089844,-114.8499984741211 -373.3580017089844,-126.3499984741211 -373.3580017089844,-126.3499984741211 C-373.3580017089844,-126.3499984741211 -364.3580017089844,-104.8499984741211 -367.8580017089844,-107.3499984741211 C-403.1830139160156,-132.58200073242188 -440.3580017089844,-111.3499984741211 -440.3580017089844,-111.3499984741211 C-440.3580017089844,-111.3499984741211 -396.8580017089844,-103.8499984741211 -407.8580017089844,-103.8499984741211 C-444.37200927734375,-103.8499984741211 -469.8580017089844,-77.3499984741211 -468.3580017089844,-79.3499984741211 C-466.8580017089844,-81.3499984741211 -390.7929992675781,-79.927001953125 -396.8580017089844,-76.8499984741211 C-430.3580017089844,-59.849998474121094 -441.3580017089844,-5.849999904632568 -441.3580017089844,-5.849999904632568 C-441.3580017089844,-5.849999904632568 -383.3580017089844,-62.849998474121094 -396.3580017089844,-42.349998474121094 C-409.3580017089844,-21.850000381469727 -396.8580017089844,20.149999618530273 -396.8580017089844,20.149999618530273 C-396.8580017089844,20.149999618530273 -351.8580017089844,-72.3499984741211 -351.8580017089844,-72.3499984741211 C-351.8580017089844,-72.3499984741211 -312.6969909667969,-71.85399627685547 -281.37200927734375,-70.88899993896484 C-261.5270080566406,-70.27799987792969 -247.031005859375,-62.08399963378906 -249.35800170898438,-66.3499984741211 C-255.35800170898438,-77.3499984741211 -296.3580017089844,-94.8499984741211 -295.8580017089844,-95.3499984741211 C-289.2510070800781,-108.56300354003906 -210.4499969482422,-107.96800231933594 -211.35800170898438,-110.3499984741211 C-215.35800170898438,-120.8499984741211 -299.8580017089844,-122.8499984741211 -299.8580017089844,-122.8499984741211 C-299.8580017089844,-122.8499984741211 -286.2869873046875,-131.52999877929688 -287.3580017089844,-131.85000610351562z"/><path stroke-linecap="butt" stroke-linejoin="miter" fill-opacity="0" stroke-miterlimit="4" stroke="rgb(0,0,0)" stroke-opacity="1" stroke-width="0" d=" M-287.3580017089844,-131.85000610351562 C-340.8580017089844,-147.85000610351562 -355.3580017089844,-96.8499984741211 -356.8580017089844,-105.8499984741211 C-358.3580017089844,-114.8499984741211 -373.3580017089844,-126.3499984741211 -373.3580017089844,-126.3499984741211 C-373.3580017089844,-126.3499984741211 -364.3580017089844,-104.8499984741211 -367.8580017089844,-107.3499984741211 C-403.1830139160156,-132.58200073242188 -440.3580017089844,-111.3499984741211 -440.3580017089844,-111.3499984741211 C-440.3580017089844,-111.3499984741211 -396.8580017089844,-103.8499984741211 -407.8580017089844,-103.8499984741211 C-444.37200927734375,-103.8499984741211 -469.8580017089844,-77.3499984741211 -468.3580017089844,-79.3499984741211 C-466.8580017089844,-81.3499984741211 -390.7929992675781,-79.927001953125 -396.8580017089844,-76.8499984741211 C-430.3580017089844,-59.849998474121094 -441.3580017089844,-5.849999904632568 -441.3580017089844,-5.849999904632568 C-441.3580017089844,-5.849999904632568 -383.3580017089844,-62.849998474121094 -396.3580017089844,-42.349998474121094 C-409.3580017089844,-21.850000381469727 -396.8580017089844,20.149999618530273 -396.8580017089844,20.149999618530273 C-396.8580017089844,20.149999618530273 -351.8580017089844,-72.3499984741211 -351.8580017089844,-72.3499984741211 C-351.8580017089844,-72.3499984741211 -312.6969909667969,-71.85399627685547 -281.37200927734375,-70.88899993896484 C-261.5270080566406,-70.27799987792969 -247.031005859375,-62.08399963378906 -249.35800170898438,-66.3499984741211 C-255.35800170898438,-77.3499984741211 -296.3580017089844,-94.8499984741211 -295.8580017089844,-95.3499984741211 C-289.2510070800781,-108.56300354003906 -210.4499969482422,-107.96800231933594 -211.35800170898438,-110.3499984741211 C-215.35800170898438,-120.8499984741211 -299.8580017089844,-122.8499984741211 -299.8580017089844,-122.8499984741211 C-299.8580017089844,-122.8499984741211 -286.2869873046875,-131.52999877929688 -287.3580017089844,-131.85000610351562z"/></g></g><g transform="matrix(1,0,0,1,1215,690)" opacity="1" style="display: block;"><g opacity="1" transform="matrix(1,0,0,1,0,0)"><path fill="rgb(244,140,51)" fill-opacity="1" d=" M-115,-124 C-115,-124 -196,65 -216,136 C-216.6060028076172,138.15199279785156 -237,-36.5 -289,-89.25 C-296.0199890136719,-96.37200164794922 -301.25,-85.5 -301.25,-85.5 C-301.25,-85.5 -222,103.5 -253,189 C-253.53900146484375,190.48599243164062 -275,202.5 -286.0610046386719,211.8470001220703 C-303.3940124511719,226.4949951171875 -302,240 -302,240 C-302,240 -145,226 -145,226 C-145,226 -178.26499938964844,186.5290069580078 -172.38400268554688,133.9010009765625 C-164.26600646972656,61.249000549316406 -131,-31 -97,-113 C-96.23400115966797,-114.84700012207031 -115,-124 -115,-124z"/><path stroke-linecap="butt" stroke-linejoin="miter" fill-opacity="0" stroke-miterlimit="4" stroke="rgb(0,0,0)" stroke-opacity="1" stroke-width="0" d=" M-115,-124 C-115,-124 -196,65 -216,136 C-216.6060028076172,138.15199279785156 -237,-36.5 -289,-89.25 C-296.0199890136719,-96.37200164794922 -301.25,-85.5 -301.25,-85.5 C-301.25,-85.5 -222,103.5 -253,189 C-253.53900146484375,190.48599243164062 -275,202.5 -286.0610046386719,211.8470001220703 C-303.3940124511719,226.4949951171875 -302,240 -302,240 C-302,240 -145,226 -145,226 C-145,226 -178.26499938964844,186.5290069580078 -172.38400268554688,133.9010009765625 C-164.26600646972656,61.249000549316406 -131,-31 -97,-113 C-96.23400115966797,-114.84700012207031 -115,-124 -115,-124z"/></g><g opacity="1" transform="matrix(1,0,0,1,0,0)"><path fill="rgb(244,140,51)" fill-opacity="1" d=" M-235.5,-145 C-289,-161 -303.5,-110 -305,-119 C-306.5,-128 -321.5,-139.5 -321.5,-139.5 C-321.5,-139.5 -312.5,-118 -316,-120.5 C-351.32501220703125,-145.73199462890625 -388.5,-124.5 -388.5,-124.5 C-388.5,-124.5 -345,-117 -356,-117 C-392.5140075683594,-117 -418,-90.5 -416.5,-92.5 C-415,-94.5 -338.93499755859375,-93.0770034790039 -345,-90 C-378.5,-73 -389.5,-19 -389.5,-19 C-389.5,-19 -331.5,-76 -344.5,-55.5 C-357.5,-35 -345,7 -345,7 C-345,7 -300,-85.5 -300,-85.5 C-300,-85.5 -260.8389892578125,-85.00299835205078 -229.51400756835938,-84.03800201416016 C-209.66900634765625,-83.427001953125 -195.17300415039062,-75.23400115966797 -197.5,-79.5 C-203.5,-90.5 -244.5,-108 -244,-108.5 C-237.39300537109375,-121.71299743652344 -158.5919952392578,-121.11799621582031 -159.5,-123.5 C-163.5,-134 -248,-136 -248,-136 C-248,-136 -234.4290008544922,-144.67999267578125 -235.5,-145z"/><path stroke-linecap="butt" stroke-linejoin="miter" fill-opacity="0" stroke-miterlimit="4" stroke="rgb(0,0,0)" stroke-opacity="1" stroke-width="0" d=" M-235.5,-145 C-289,-161 -303.5,-110 -305,-119 C-306.5,-128 -321.5,-139.5 -321.5,-139.5 C-321.5,-139.5 -312.5,-118 -316,-120.5 C-351.32501220703125,-145.73199462890625 -388.5,-124.5 -388.5,-124.5 C-388.5,-124.5 -345,-117 -356,-117 C-392.5140075683594,-117 -418,-90.5 -416.5,-92.5 C-415,-94.5 -338.93499755859375,-93.0770034790039 -345,-90 C-378.5,-73 -389.5,-19 -389.5,-19 C-389.5,-19 -331.5,-76 -344.5,-55.5 C-357.5,-35 -345,7 -345,7 C-345,7 -300,-85.5 -300,-85.5 C-300,-85.5 -260.8389892578125,-85.00299835205078 -229.51400756835938,-84.03800201416016 C-209.66900634765625,-83.427001953125 -195.17300415039062,-75.23400115966797 -197.5,-79.5 C-203.5,-90.5 -244.5,-108 -244,-108.5 C-237.39300537109375,-121.71299743652344 -158.5919952392578,-121.11799621582031 -159.5,-123.5 C-163.5,-134 -248,-136 -248,-136 C-248,-136 -234.4290008544922,-144.67999267578125 -235.5,-145z"/></g><g opacity="1" transform="matrix(0.8480480909347534,0.5299192667007446,-0.5299192667007446,0.8480480909347534,148.5,125)"><path fill="rgb(244,140,51)" fill-opacity="1" d=" M-287.3580017089844,-131.85000610351562 C-340.8580017089844,-147.85000610351562 -355.3580017089844,-96.8499984741211 -356.8580017089844,-105.8499984741211 C-358.3580017089844,-114.8499984741211 -373.3580017089844,-126.3499984741211 -373.3580017089844,-126.3499984741211 C-373.3580017089844,-126.3499984741211 -364.3580017089844,-104.8499984741211 -367.8580017089844,-107.3499984741211 C-403.1830139160156,-132.58200073242188 -440.3580017089844,-111.3499984741211 -440.3580017089844,-111.3499984741211 C-440.3580017089844,-111.3499984741211 -396.8580017089844,-103.8499984741211 -407.8580017089844,-103.8499984741211 C-444.37200927734375,-103.8499984741211 -469.8580017089844,-77.3499984741211 -468.3580017089844,-79.3499984741211 C-466.8580017089844,-81.3499984741211 -390.7929992675781,-79.927001953125 -396.8580017089844,-76.8499984741211 C-430.3580017089844,-59.849998474121094 -441.3580017089844,-5.849999904632568 -441.3580017089844,-5.849999904632568 C-441.3580017089844,-5.849999904632568 -383.3580017089844,-62.849998474121094 -396.3580017089844,-42.349998474121094 C-409.3580017089844,-21.850000381469727 -396.8580017089844,20.149999618530273 -396.8580017089844,20.149999618530273 C-396.8580017089844,20.149999618530273 -351.8580017089844,-72.3499984741211 -351.8580017089844,-72.3499984741211 C-351.8580017089844,-72.3499984741211 -312.6969909667969,-71.85399627685547 -281.37200927734375,-70.88899993896484 C-261.5270080566406,-70.27799987792969 -247.031005859375,-62.08399963378906 -249.35800170898438,-66.3499984741211 C-255.35800170898438,-77.3499984741211 -296.3580017089844,-94.8499984741211 -295.8580017089844,-95.3499984741211 C-289.2510070800781,-108.56300354003906 -210.4499969482422,-107.96800231933594 -211.35800170898438,-110.3499984741211 C-215.35800170898438,-120.8499984741211 -299.8580017089844,-122.8499984741211 -299.8580017089844,-122.8499984741211 C-299.8580017089844,-122.8499984741211 -286.2869873046875,-131.52999877929688 -287.3580017089844,-131.85000610351562z"/><path stroke-linecap="butt" stroke-linejoin="miter" fill-opacity="0" stroke-miterlimit="4" stroke="rgb(0,0,0)" stroke-opacity="1" stroke-width="0" d=" M-287.3580017089844,-131.85000610351562 C-340.8580017089844,-147.85000610351562 -355.3580017089844,-96.8499984741211 -356.8580017089844,-105.8499984741211 C-358.3580017089844,-114.8499984741211 -373.3580017089844,-126.3499984741211 -373.3580017089844,-126.3499984741211 C-373.3580017089844,-126.3499984741211 -364.3580017089844,-104.8499984741211 -367.8580017089844,-107.3499984741211 C-403.1830139160156,-132.58200073242188 -440.3580017089844,-111.3499984741211 -440.3580017089844,-111.3499984741211 C-440.3580017089844,-111.3499984741211 -396.8580017089844,-103.8499984741211 -407.8580017089844,-103.8499984741211 C-444.37200927734375,-103.8499984741211 -469.8580017089844,-77.3499984741211 -468.3580017089844,-79.3499984741211 C-466.8580017089844,-81.3499984741211 -390.7929992675781,-79.927001953125 -396.8580017089844,-76.8499984741211 C-430.3580017089844,-59.849998474121094 -441.3580017089844,-5.849999904632568 -441.3580017089844,-5.849999904632568 C-441.3580017089844,-5.849999904632568 -383.3580017089844,-62.849998474121094 -396.3580017089844,-42.349998474121094 C-409.3580017089844,-21.850000381469727 -396.8580017089844,20.149999618530273 -396.8580017089844,20.149999618530273 C-396.8580017089844,20.149999618530273 -351.8580017089844,-72.3499984741211 -351.8580017089844,-72.3499984741211 C-351.8580017089844,-72.3499984741211 -312.6969909667969,-71.85399627685547 -281.37200927734375,-70.88899993896484 C-261.5270080566406,-70.27799987792969 -247.031005859375,-62.08399963378906 -249.35800170898438,-66.3499984741211 C-255.35800170898438,-77.3499984741211 -296.3580017089844,-94.8499984741211 -295.8580017089844,-95.3499984741211 C-289.2510070800781,-108.56300354003906 -210.4499969482422,-107.96800231933594 -211.35800170898438,-110.3499984741211 C-215.35800170898438,-120.8499984741211 -299.8580017089844,-122.8499984741211 -299.8580017089844,-122.8499984741211 C-299.8580017089844,-122.8499984741211 -286.2869873046875,-131.52999877929688 -287.3580017089844,-131.85000610351562z"/></g></g><g transform="matrix(1,0,0,1,800,604.6287231445312)" opacity="1" style="display: block;"><g opacity="1" transform="matrix(1,0,0,1,0,0)"><path fill="rgb(6,180,207)" fill-opacity="1" d=" M374,307 C271.2279968261719,243.7550048828125 -343,288 -379,306 C-415,324 -316,332 -316,332 C-316,332 -349.875,338.1820068359375 -339.1419982910156,352.4859924316406 C-326,370 -259,366 -259,366 C-259,366 -289,369 -279,387 C-274.60198974609375,394.9159851074219 -199.87100219726562,428.38800048828125 45,419 C358,407 272,373 272,373 C272,373 327,369 364,355 C401,341 328,333 328,333 C328,333 400,323 374,307z"/><path stroke-linecap="butt" stroke-linejoin="miter" fill-opacity="0" stroke-miterlimit="4" stroke="rgb(0,0,0)" stroke-opacity="1" stroke-width="0" d=" M374,307 C271.2279968261719,243.7550048828125 -343,288 -379,306 C-415,324 -316,332 -316,332 C-316,332 -349.875,338.1820068359375 -339.1419982910156,352.4859924316406 C-326,370 -259,366 -259,366 C-259,366 -289,369 -279,387 C-274.60198974609375,394.9159851074219 -199.87100219726562,428.38800048828125 45,419 C358,407 272,373 272,373 C272,373 327,369 364,355 C401,341 328,333 328,333 C328,333 400,323 374,307z"/></g></g><g transform="matrix(0.9995906352996826,0.02861083671450615,-0.02861083671450615,0.9995906352996826,808.4066772460938,600.4636840820312)" opacity="1" style="display: block;"><g opacity="1" transform="matrix(-1,0,0,1,7.561999797821045,-0.625)"><path fill="rgb(255,255,255)" fill-opacity="1" d=" M4,-213.18800354003906 C4,-213.18800354003906 -222.343994140625,164.593994140625 -222.343994140625,164.593994140625 C-222.343994140625,164.593994140625 1.75,164.56199645996094 1.75,164.56199645996094 C1.75,164.56199645996094 4,-213.18800354003906 4,-213.18800354003906z"/><path stroke-linecap="butt" stroke-linejoin="miter" fill-opacity="0" stroke-miterlimit="4" stroke="rgb(0,0,0)" stroke-opacity="1" stroke-width="0" d=" M4,-213.18800354003906 C4,-213.18800354003906 -222.343994140625,164.593994140625 -222.343994140625,164.593994140625 C-222.343994140625,164.593994140625 1.75,164.56199645996094 1.75,164.56199645996094 C1.75,164.56199645996094 4,-213.18800354003906 4,-213.18800354003906z"/></g><g opacity="1" transform="matrix(1,0,0,1,0,0)"><path fill="rgb(31,131,183)" fill-opacity="1" d=" M4,-216 C4,-216 -161,164 -161,164 C-161,164 6,164 6,164 C6,164 4,-216 4,-216z"/><path stroke-linecap="butt" stroke-linejoin="miter" fill-opacity="0" stroke-miterlimit="4" stroke="rgb(0,0,0)" stroke-opacity="1" stroke-width="0" d=" M4,-216 C4,-216 -161,164 -161,164 C-161,164 6,164 6,164 C6,164 4,-216 4,-216z"/></g><g opacity="1" transform="matrix(1.1238900423049927,0,0,1,3.437999963760376,-216)"><path fill="rgb(51,27,29)" fill-opacity="1" d=" M20.9375,0 C20.9375,0 20.9375,0 20.9375,0 C20.9375,4.484187602996826 17.296688079833984,8.125 12.8125,8.125 C12.8125,8.125 -12.8125,8.125 -12.8125,8.125 C-17.296688079833984,8.125 -20.9375,4.484187602996826 -20.9375,0 C-20.9375,0 -20.9375,0 -20.9375,0 C-20.9375,-4.484187602996826 -17.296688079833984,-8.125 -12.8125,-8.125 C-12.8125,-8.125 12.8125,-8.125 12.8125,-8.125 C17.296688079833984,-8.125 20.9375,-4.484187602996826 20.9375,0z"/><path stroke-linecap="butt" stroke-linejoin="miter" fill-opacity="0" stroke-miterlimit="4" stroke="rgb(0,0,0)" stroke-opacity="1" stroke-width="0" d=" M20.9375,0 C20.9375,0 20.9375,0 20.9375,0 C20.9375,4.484187602996826 17.296688079833984,8.125 12.8125,8.125 C12.8125,8.125 -12.8125,8.125 -12.8125,8.125 C-17.296688079833984,8.125 -20.9375,4.484187602996826 -20.9375,0 C-20.9375,0 -20.9375,0 -20.9375,0 C-20.9375,-4.484187602996826 -17.296688079833984,-8.125 -12.8125,-8.125 C-12.8125,-8.125 12.8125,-8.125 12.8125,-8.125 C17.296688079833984,-8.125 20.9375,-4.484187602996826 20.9375,0z"/></g><g opacity="1" transform="matrix(1,0,0,1,5,-0.5)"><path fill="rgb(51,27,29)" fill-opacity="1" d=" M10.231499671936035,-215.5 C10.231499671936035,-215.5 10.231499671936035,215.5 10.231499671936035,215.5 C10.231499671936035,215.5 -10.231499671936035,215.5 -10.231499671936035,215.5 C-10.231499671936035,215.5 -10.231499671936035,-215.5 -10.231499671936035,-215.5 C-10.231499671936035,-215.5 10.231499671936035,-215.5 10.231499671936035,-215.5z"/><path stroke-linecap="butt" stroke-linejoin="miter" fill-opacity="0" stroke-miterlimit="4" stroke="rgb(0,0,0)" stroke-opacity="1" stroke-width="0" d=" M10.231499671936035,-215.5 C10.231499671936035,-215.5 10.231499671936035,215.5 10.231499671936035,215.5 C10.231499671936035,215.5 -10.231499671936035,215.5 -10.231499671936035,215.5 C-10.231499671936035,215.5 -10.231499671936035,-215.5 -10.231499671936035,-215.5 C-10.231499671936035,-215.5 10.231499671936035,-215.5 10.231499671936035,-215.5z"/></g><g opacity="1" transform="matrix(1,0,0,1,0,0)"><path fill="rgb(123,74,22)" fill-opacity="1" d=" M-74,197 C-173,180 -272,222 -272,222 C-272,222 -233,298 -193,301 C-153,304 198,301 198,301 C198,301 246,289 281,219 C283.6080017089844,213.78500366210938 209.23800659179688,245.63699340820312 -74,197z"/><path stroke-linecap="butt" stroke-linejoin="miter" fill-opacity="0" stroke-miterlimit="4" stroke="rgb(0,0,0)" stroke-opacity="1" stroke-width="0" d=" M-74,197 C-173,180 -272,222 -272,222 C-272,222 -233,298 -193,301 C-153,304 198,301 198,301 C198,301 246,289 281,219 C283.6080017089844,213.78500366210938 209.23800659179688,245.63699340820312 -74,197z"/></g></g><g transform="matrix(0.8100000023841858,0,0,0.8100000023841858,797.5180053710938,655.517578125)" opacity="1" style="display: block;"><g opacity="1" transform="matrix(1,0,0,1,0,0)"><path fill="rgb(6,180,207)" fill-opacity="1" d=" M374.3360290527344,308.3436279296875 C325.5780334472656,278.338623046875 157.4571990966797,281.4022216796875 -5.86895751953125,270.4566345214844 C-200.5275421142578,257.4916687011719 -355.1529235839844,293.78607177734375 -378.6639709472656,307.3436279296875 C-413.9034423828125,326.6352844238281 -315.6639709472656,333.3436279296875 -315.6639709472656,333.3436279296875 C-315.6639709472656,333.3436279296875 -349.5392150878906,339.525634765625 -338.8062438964844,353.8296203613281 C-325.6642150878906,371.3436279296875 -258.6639709472656,367.3436279296875 -258.6639709472656,367.3436279296875 C-258.6639709472656,367.3436279296875 -288.6639709472656,370.3436279296875 -278.6639709472656,388.3436279296875 C-274.2659606933594,396.2596130371094 -199.5352325439453,429.73162841796875 45.33576965332031,420.3436279296875 C358.3357849121094,408.3436279296875 272.3360290527344,374.3436279296875 272.3360290527344,374.3436279296875 C272.3360290527344,374.3436279296875 327.3360290527344,370.3436279296875 364.3360290527344,356.3436279296875 C401.3360290527344,342.3436279296875 328.3360290527344,334.3436279296875 328.3360290527344,334.3436279296875 C328.3360290527344,334.3436279296875 400.3360290527344,324.3436279296875 374.3360290527344,308.3436279296875z"/><path stroke-linecap="butt" stroke-linejoin="miter" fill-opacity="0" stroke-miterlimit="4" stroke="rgb(0,0,0)" stroke-opacity="1" stroke-width="0" d=" M374.3360290527344,308.3436279296875 C325.5780334472656,278.338623046875 157.4571990966797,281.4022216796875 -5.86895751953125,270.4566345214844 C-200.5275421142578,257.4916687011719 -355.1529235839844,293.78607177734375 -378.6639709472656,307.3436279296875 C-413.9034423828125,326.6352844238281 -315.6639709472656,333.3436279296875 -315.6639709472656,333.3436279296875 C-315.6639709472656,333.3436279296875 -349.5392150878906,339.525634765625 -338.8062438964844,353.8296203613281 C-325.6642150878906,371.3436279296875 -258.6639709472656,367.3436279296875 -258.6639709472656,367.3436279296875 C-258.6639709472656,367.3436279296875 -288.6639709472656,370.3436279296875 -278.6639709472656,388.3436279296875 C-274.2659606933594,396.2596130371094 -199.5352325439453,429.73162841796875 45.33576965332031,420.3436279296875 C358.3357849121094,408.3436279296875 272.3360290527344,374.3436279296875 272.3360290527344,374.3436279296875 C272.3360290527344,374.3436279296875 327.3360290527344,370.3436279296875 364.3360290527344,356.3436279296875 C401.3360290527344,342.3436279296875 328.3360290527344,334.3436279296875 328.3360290527344,334.3436279296875 C328.3360290527344,334.3436279296875 400.3360290527344,324.3436279296875 374.3360290527344,308.3436279296875z"/></g></g><g transform="matrix(1,0,0,1,809.7246704101562,604.9850463867188)" opacity="1" style="display: block;"><g opacity="1" transform="matrix(1,0,0,1,0,0)"><path fill="rgb(108,204,226)" fill-opacity="1" d=" M178.25,317.25 C50.25,296.75 -33.25,320.75 -33.25,320.75 C-33.25,320.75 184.4949951171875,318.25 178.25,317.25z"/><path stroke-linecap="butt" stroke-linejoin="miter" fill-opacity="0" stroke-miterlimit="4" stroke="rgb(0,0,0)" stroke-opacity="1" stroke-width="0" d=" M178.25,317.25 C50.25,296.75 -33.25,320.75 -33.25,320.75 C-33.25,320.75 184.4949951171875,318.25 178.25,317.25z"/></g><g opacity="1" transform="matrix(1,0,0,1,0,0)"><path fill="rgb(108,204,226)" fill-opacity="1" d=" M-48.5,348.5 C-146.5,332.5 -213.8719940185547,338.5929870605469 -244.9949951171875,345.0260009765625 C-255.6840057373047,347.2349853515625 -259,350.5 -259,350.5 C-259,350.5 -46.03300094604492,348.90301513671875 -48.5,348.5z"/><path stroke-linecap="butt" stroke-linejoin="miter" fill-opacity="0" stroke-miterlimit="4" stroke="rgb(0,0,0)" stroke-opacity="1" stroke-width="0" d=" M-48.5,348.5 C-146.5,332.5 -213.8719940185547,338.5929870605469 -244.9949951171875,345.0260009765625 C-255.6840057373047,347.2349853515625 -259,350.5 -259,350.5 C-259,350.5 -46.03300094604492,348.90301513671875 -48.5,348.5z"/></g><g opacity="1" transform="matrix(1,0,0,1,93.5,19.5)"><path fill="rgb(108,204,226)" fill-opacity="1" d=" M-55.5,350.5 C-137.5,329 -217.8719940185547,338.0929870605469 -248.9949951171875,344.5260009765625 C-259.6839904785156,346.7349853515625 -273,353 -273,353 C-273,353 -229.9320068359375,346.7229919433594 -181.52200317382812,345.81201171875 C-118.79900360107422,344.6319885253906 -54.1349983215332,350.8580017089844 -55.5,350.5z"/><path stroke-linecap="butt" stroke-linejoin="miter" fill-opacity="0" stroke-miterlimit="4" stroke="rgb(0,0,0)" stroke-opacity="1" stroke-width="0" d=" M-55.5,350.5 C-137.5,329 -217.8719940185547,338.0929870605469 -248.9949951171875,344.5260009765625 C-259.6839904785156,346.7349853515625 -273,353 -273,353 C-273,353 -229.9320068359375,346.7229919433594 -181.52200317382812,345.81201171875 C-118.79900360107422,344.6319885253906 -54.1349983215332,350.8580017089844 -55.5,350.5z"/></g></g><g transform="matrix(1,0,0,1,800,600)" opacity="1" style="display: block;"/></g></svg>