<svg xmlns="http://www.w3.org/2000/svg" viewBox="0 0 64 64" id="kayak"><path fill="#005ece" d="M17 27.75a5.228 5.228 0 0 1-3.015-.893A3.257 3.257 0 0 0 12 26.25a3.26 3.26 0 0 0-1.987.607A5.222 5.222 0 0 1 7 27.75a5.224 5.224 0 0 1-3.014-.893A3.248 3.248 0 0 0 2 26.25v-2a5.224 5.224 0 0 1 3.014.893A3.248 3.248 0 0 0 7 25.75a3.251 3.251 0 0 0 1.985-.607A5.232 5.232 0 0 1 12 24.25a5.228 5.228 0 0 1 3.015.893A3.257 3.257 0 0 0 17 25.75zM17 35.75a5.228 5.228 0 0 1-3.015-.893A3.257 3.257 0 0 0 12 34.25a3.26 3.26 0 0 0-1.987.607A5.222 5.222 0 0 1 7 35.75a5.224 5.224 0 0 1-3.014-.893A3.248 3.248 0 0 0 2 34.25v-2a5.224 5.224 0 0 1 3.014.893A3.248 3.248 0 0 0 7 33.75a3.251 3.251 0 0 0 1.985-.607A5.232 5.232 0 0 1 12 32.25a5.228 5.228 0 0 1 3.015.893A3.257 3.257 0 0 0 17 33.75zM17 43.75a5.228 5.228 0 0 1-3.015-.893A3.257 3.257 0 0 0 12 42.25a3.26 3.26 0 0 0-1.987.607A5.222 5.222 0 0 1 7 43.75a5.224 5.224 0 0 1-3.014-.893A3.248 3.248 0 0 0 2 42.25v-2a5.224 5.224 0 0 1 3.014.893A3.248 3.248 0 0 0 7 41.75a3.251 3.251 0 0 0 1.985-.607A5.232 5.232 0 0 1 12 40.25a5.228 5.228 0 0 1 3.015.893A3.257 3.257 0 0 0 17 41.75zM17 51.75a5.228 5.228 0 0 1-3.015-.893A3.257 3.257 0 0 0 12 50.25a3.26 3.26 0 0 0-1.987.607A5.222 5.222 0 0 1 7 51.75a5.224 5.224 0 0 1-3.014-.893A3.248 3.248 0 0 0 2 50.25v-2a5.224 5.224 0 0 1 3.014.893A3.248 3.248 0 0 0 7 49.75a3.251 3.251 0 0 0 1.985-.607A5.232 5.232 0 0 1 12 48.25a5.228 5.228 0 0 1 3.015.893A3.257 3.257 0 0 0 17 49.75zM17 59.75a5.228 5.228 0 0 1-3.015-.893A3.257 3.257 0 0 0 12 58.25a3.26 3.26 0 0 0-1.987.607A5.222 5.222 0 0 1 7 59.75a5.224 5.224 0 0 1-3.014-.893A3.248 3.248 0 0 0 2 58.25v-2a5.224 5.224 0 0 1 3.014.893A3.248 3.248 0 0 0 7 57.75a3.251 3.251 0 0 0 1.985-.607A5.232 5.232 0 0 1 12 56.25a5.228 5.228 0 0 1 3.015.893A3.257 3.257 0 0 0 17 57.75zM62 7.75a5.228 5.228 0 0 1-3.015-.893 3.554 3.554 0 0 0-3.973 0 5.533 5.533 0 0 1-6.028 0A3.248 3.248 0 0 0 47 6.25v-2a5.224 5.224 0 0 1 3.014.893 3.548 3.548 0 0 0 3.969 0 5.538 5.538 0 0 1 6.031 0A3.257 3.257 0 0 0 62 5.75zM62 15.75a5.228 5.228 0 0 1-3.015-.893 3.554 3.554 0 0 0-3.973 0 5.533 5.533 0 0 1-6.028 0A3.248 3.248 0 0 0 47 14.25v-2a5.224 5.224 0 0 1 3.014.893 3.548 3.548 0 0 0 3.969 0 5.538 5.538 0 0 1 6.031 0A3.257 3.257 0 0 0 62 13.75zM62 23.75a5.228 5.228 0 0 1-3.015-.893 3.554 3.554 0 0 0-3.973 0 5.533 5.533 0 0 1-6.028 0A3.248 3.248 0 0 0 47 22.25v-2a5.224 5.224 0 0 1 3.014.893 3.548 3.548 0 0 0 3.969 0 5.538 5.538 0 0 1 6.031 0A3.257 3.257 0 0 0 62 21.75zM62 31.75a5.228 5.228 0 0 1-3.015-.893 3.554 3.554 0 0 0-3.973 0 5.533 5.533 0 0 1-6.028 0A3.248 3.248 0 0 0 47 30.25v-2a5.224 5.224 0 0 1 3.014.893 3.548 3.548 0 0 0 3.969 0 5.538 5.538 0 0 1 6.031 0A3.257 3.257 0 0 0 62 29.75zM62 39.75a5.228 5.228 0 0 1-3.015-.893 3.554 3.554 0 0 0-3.973 0 5.533 5.533 0 0 1-6.028 0A3.248 3.248 0 0 0 47 38.25v-2a5.224 5.224 0 0 1 3.014.893 3.548 3.548 0 0 0 3.969 0 5.538 5.538 0 0 1 6.031 0A3.257 3.257 0 0 0 62 37.75z"></path><path fill="#ff9811" d="M29,56l-.86-6.89A.992.992,0,0,1,29.12,48H32V44c-3.314,0-6-5.373-6-12s2.686-12,6-12V16a4,4,0,0,1,0-8V3c-4.87,0-9.06,7-10.94,17.06A65.475,65.475,0,0,0,20,32c0,16.02,5.37,29,12,29V56Z"></path><path fill="#df850f" d="M32,3V8a4,4,0,0,1,0,8v4c3.314,0,6,5.373,6,12s-2.686,12-6,12v4h2.88a.992.992,0,0,1,.98,1.11L35,56H32v5c5.14,0,9.52-7.8,11.23-18.77A66.226,66.226,0,0,0,44,32C44,15.98,38.63,3,32,3Z"></path><path fill="#cd2a00" d="M26,32c0,6.627,2.686,12,6,12V20C28.686,20,26,25.373,26,32Z"></path><path fill="#b32500" d="M38,32c0-6.627-2.686-12-6-12V44C35.314,44,38,38.627,38,32Z"></path><path fill="#cd2a00" d="M28.14,49.11,29,56h3V48H29.12A.992.992,0,0,0,28.14,49.11Z"></path><path fill="#b32500" d="M35 56l.86-6.89A.992.992 0 0 0 34.88 48H32v8zM36 12a4 4 0 0 0-4-4v8A4 4 0 0 0 36 12z"></path><path fill="#cd2a00" d="M28,12a4,4,0,0,0,4,4V8A4,4,0,0,0,28,12Z"></path><rect width="2" height="52.326" x="32.5" y="6.337" fill="#ddb200" transform="rotate(-45 33.5 32.5)"></rect><path fill="#ffda44" d="M17.54 16.54c-1.17 1.18-4.65-.41-7.77-3.53S5.06 6.4 6.23 5.23s4.65.41 7.78 3.54S18.72 15.37 17.54 16.54zM47.69 46.69c1.17-1.18 4.65.41 7.77 3.53S60.17 56.83 59 58s-4.65-.41-7.78-3.54S46.51 47.86 47.69 46.69z"></path></svg>